<?xml version="1.0" encoding="UTF-8" standalone="no"?>
<svg
   xmlns:dc="http://purl.org/dc/elements/1.1/"
   xmlns:cc="http://creativecommons.org/ns#"
   xmlns:rdf="http://www.w3.org/1999/02/22-rdf-syntax-ns#"
   xmlns:svg="http://www.w3.org/2000/svg"
   xmlns="http://www.w3.org/2000/svg"
   xmlns:sodipodi="http://sodipodi.sourceforge.net/DTD/sodipodi-0.dtd"
   xmlns:inkscape="http://www.inkscape.org/namespaces/inkscape"
   height="32.281036"
   width="106.31068"
   version="1.1"
   id="svg4"
   sodipodi:docname="logo.svg"
   inkscape:version="0.92.4 (f8dce91, 2019-08-02)">
  <metadata
     id="metadata10">
    <rdf:RDF>
      <cc:Work
         rdf:about="">
        <dc:format>image/svg+xml</dc:format>
        <dc:type
           rdf:resource="http://purl.org/dc/dcmitype/StillImage" />
        <dc:title></dc:title>
      </cc:Work>
    </rdf:RDF>
  </metadata>
  <defs
     id="defs8">
    <filter
       inkscape:collect="always"
       style="color-interpolation-filters:sRGB"
       id="filter5080"
       x="-0.019672182"
       width="1.0393444"
       y="-0.058079777"
       height="1.1161596">
      <feGaussianBlur
         inkscape:collect="always"
         stdDeviation="0.59107602"
         id="feGaussianBlur5082" />
    </filter>
    <filter
       inkscape:collect="always"
       style="color-interpolation-filters:sRGB"
       id="filter5364"
       x="-0.035600436"
       width="1.0712009"
       y="-0.038950066"
       height="1.0779001">
      <feGaussianBlur
         inkscape:collect="always"
         stdDeviation="0.52386276"
         id="feGaussianBlur5366" />
    </filter>
  </defs>
  <sodipodi:namedview
     pagecolor="#ffffff"
     bordercolor="#666666"
     borderopacity="1"
     objecttolerance="1"
     gridtolerance="10"
     guidetolerance="10"
     inkscape:pageopacity="0"
     inkscape:pageshadow="2"
     inkscape:window-width="1920"
     inkscape:window-height="1043"
     id="namedview6"
     showgrid="false"
     inkscape:zoom="7.375"
     inkscape:cx="38.022565"
     inkscape:cy="36.833797"
     inkscape:window-x="0"
     inkscape:window-y="0"
     inkscape:window-maximized="1"
     inkscape:current-layer="svg4"
     fit-margin-top="0"
     fit-margin-left="0"
     fit-margin-right="0"
     fit-margin-bottom="0" />
  <text
     id="text3929"
     y="28.240131"
     x="36.621395"
     style="font-style:normal;font-variant:normal;font-weight:normal;font-stretch:normal;font-size:39.04904938px;line-height:1.25;font-family:Uroob;-inkscape-font-specification:'Uroob, Normal';font-variant-ligatures:normal;font-variant-caps:normal;font-variant-numeric:normal;font-feature-settings:normal;text-align:start;letter-spacing:0px;word-spacing:0px;writing-mode:lr-tb;text-anchor:start;fill:#000000;fill-opacity:1;stroke:none;stroke-width:0.79829645;filter:url(#filter5080);opacity:0.26315789;"
     xml:space="preserve"
     transform="scale(0.95787267,1.0439801)"><tspan
       style="font-style:normal;font-variant:normal;font-weight:normal;font-stretch:normal;font-size:39.04904938px;font-family:Uroob;-inkscape-font-specification:'Uroob, Normal';font-variant-ligatures:normal;font-variant-caps:normal;font-variant-numeric:normal;font-feature-settings:normal;text-align:start;writing-mode:lr-tb;text-anchor:start;fill:#000000;stroke-width:0.79829645;"
       y="28.240131"
       x="36.621395"
       id="tspan3927"
       sodipodi:role="line">Aircnc</tspan></text>
  <text
     xml:space="preserve"
     style="font-style:normal;font-variant:normal;font-weight:normal;font-stretch:normal;font-size:37.33333206px;line-height:1.25;font-family:Uroob;-inkscape-font-specification:'Uroob, Normal';font-variant-ligatures:normal;font-variant-caps:normal;font-variant-numeric:normal;font-feature-settings:normal;text-align:start;letter-spacing:0px;word-spacing:0px;writing-mode:lr-tb;text-anchor:start;fill:#ffffff;fill-opacity:1;stroke:none;stroke-width:0.8177371"
     x="35.599747"
     y="27.816299"
     id="text3920"><tspan
       sodipodi:role="line"
       id="tspan3918"
       x="35.599747"
       y="27.816299"
       style="font-style:normal;font-variant:normal;font-weight:normal;font-stretch:normal;font-size:37.33333206px;font-family:Uroob;-inkscape-font-specification:'Uroob, Normal';font-variant-ligatures:normal;font-variant-caps:normal;font-variant-numeric:normal;font-feature-settings:normal;text-align:start;writing-mode:lr-tb;text-anchor:start;fill:#ffffff;stroke-width:0.8177371">Aircnc</tspan></text>
  <g
     id="g4766"
     transform="matrix(0.94923024,0,0,0.94923024,0.92547186,0.81943982)"
     style="filter:url(#filter5364);opacity:0.223">
    <path
       style="color:#000000;font-style:normal;font-variant:normal;font-weight:normal;font-stretch:normal;font-size:medium;line-height:normal;font-family:sans-serif;font-variant-ligatures:normal;font-variant-position:normal;font-variant-caps:normal;font-variant-numeric:normal;font-variant-alternates:normal;font-feature-settings:normal;text-indent:0;text-align:start;text-decoration:none;text-decoration-line:none;text-decoration-style:solid;text-decoration-color:#000000;letter-spacing:normal;word-spacing:normal;text-transform:none;writing-mode:lr-tb;direction:ltr;text-orientation:mixed;dominant-baseline:auto;baseline-shift:baseline;text-anchor:start;white-space:normal;shape-padding:0;clip-rule:nonzero;display:inline;overflow:visible;visibility:visible;opacity:1;isolation:auto;mix-blend-mode:normal;color-interpolation:sRGB;color-interpolation-filters:linearRGB;solid-color:#000000;solid-opacity:1;vector-effect:none;fill:#000000;fill-opacity:1;fill-rule:nonzero;stroke:none;stroke-width:1.1414696;stroke-linecap:butt;stroke-linejoin:miter;stroke-miterlimit:4;stroke-dasharray:none;stroke-dashoffset:0;stroke-opacity:1;color-rendering:auto;image-rendering:auto;shape-rendering:auto;text-rendering:auto;enable-background:accumulate"
       d="m 27.343751,0.35407883 c -0.899174,-0.519138 -2.014175,-0.43037697 -3.158218,0.0326933 -1.144042,0.46306938 -2.374475,1.30374477 -3.662229,2.45254117 -2.575509,2.2975933 -5.3715,5.8349608 -7.835021,10.1019037 -2.463521,4.266943 -4.1279982,8.455335 -4.8300185,11.834588 -0.3510095,1.689626 -0.4648158,3.17724 -0.293825,4.399546 0.1709908,1.222305 0.6516221,2.232305 1.5507955,2.751443 0.899173,0.519138 2.012483,0.4294 3.156526,-0.03367 1.144043,-0.46307 2.375452,-1.305437 3.663205,-2.454233 2.57551,-2.297594 5.372215,-5.832293 7.835736,-10.099236 2.463521,-4.266943 4.127284,-8.458003 4.829304,-11.8372557 C 28.951016,5.8127734 29.063846,4.32685 28.892855,3.1045456 28.721864,1.8822404 28.242924,0.87321683 27.343751,0.35407883 Z M 26.773438,1.3418891 c 0.494468,0.2854815 0.847712,0.898104 0.990761,1.9206694 0.143049,1.0225663 0.0508,2.4040414 -0.282639,4.0090767 -0.666873,3.2100708 -2.287736,7.3179448 -4.70036,11.4967308 -2.412623,4.178786 -5.159715,7.636432 -7.60628,9.818996 -1.223283,1.091283 -2.373551,1.861912 -3.330643,2.24931 -0.957092,0.387399 -1.664261,0.387793 -2.1587295,0.102312 C 9.1910791,30.653502 8.8378353,30.040878 8.6947861,29.018313 8.5517377,27.995748 8.6422972,26.613296 8.975734,25.008261 9.6426072,21.79819 11.26347,17.690316 13.676093,13.51153 16.088717,9.3327436 18.835809,5.8750982 21.282375,3.6925337 22.505658,2.6012514 23.657616,1.8315988 24.614708,1.444199 25.5718,1.0568006 26.27897,1.0564076 26.773438,1.3418891 Z"
       id="path3945"
       inkscape:connector-curvature="0" />
    <ellipse
       transform="matrix(-0.8660254,0.5,0.5,0.8660254,0,0)"
       style="fill:none;stroke:#000000;stroke-width:1.1414696"
       id="ellipse3947"
       cx="-7.7166414"
       cy="23.092012"
       rx="5.82757"
       ry="17.658079" />
    <ellipse
       ry="17.658079"
       rx="5.82757"
       cy="18.228813"
       cx="16.139948"
       id="ellipse4758"
       style="fill:none;stroke:#000000;stroke-width:1.1414696"
       transform="matrix(0,1,1,0,0,0)" />
    <circle
       style="fill:#1a1a1a;stroke:none"
       id="circle4760"
       cx="18.228813"
       cy="16.140518"
       r="3.8305085" />
  </g>
  <ellipse
     transform="matrix(-0.8660254,0.5,0.5,0.8660254,0,0)"
     style="fill:none;stroke:#00ffff;stroke-width:1.1414696"
     id="ellipse15"
     cx="-7.7166414"
     cy="23.092012"
     rx="5.82757"
     ry="17.658079" />
  <g
     id="g201"
     transform="translate(-75.872886,7.8348639)">
    <g
       id="g183" />
  </g>
  <path
     style="color:#000000;font-style:normal;font-variant:normal;font-weight:normal;font-stretch:normal;font-size:medium;line-height:normal;font-family:sans-serif;font-variant-ligatures:normal;font-variant-position:normal;font-variant-caps:normal;font-variant-numeric:normal;font-variant-alternates:normal;font-feature-settings:normal;text-indent:0;text-align:start;text-decoration:none;text-decoration-line:none;text-decoration-style:solid;text-decoration-color:#000000;letter-spacing:normal;word-spacing:normal;text-transform:none;writing-mode:lr-tb;direction:ltr;text-orientation:mixed;dominant-baseline:auto;baseline-shift:baseline;text-anchor:start;white-space:normal;shape-padding:0;clip-rule:nonzero;display:inline;overflow:visible;visibility:visible;opacity:1;isolation:auto;mix-blend-mode:normal;color-interpolation:sRGB;color-interpolation-filters:linearRGB;solid-color:#000000;solid-opacity:1;vector-effect:none;fill:#00ffff;fill-opacity:1;fill-rule:nonzero;stroke:none;stroke-width:1.1414696;stroke-linecap:butt;stroke-linejoin:miter;stroke-miterlimit:4;stroke-dasharray:none;stroke-dashoffset:0;stroke-opacity:1;color-rendering:auto;image-rendering:auto;shape-rendering:auto;text-rendering:auto;enable-background:accumulate"
     d="m 36.457031,16.140625 c 0,-1.038276 -0.63437,-1.959515 -1.607422,-2.71875 -0.973051,-0.759235 -2.316314,-1.404483 -3.955078,-1.945313 -3.277528,-1.081659 -7.738974,-1.7343745 -12.666015,-1.7343745 -4.927042,0 -9.3865345,0.6527155 -12.6640629,1.7343745 C 3.925689,12.017392 2.5804734,12.66264 1.6074219,13.421875 0.63437031,14.18111 0,15.102349 0,16.140625 c 0,1.038276 0.63437031,1.957562 1.6074219,2.716797 0.9730515,0.759235 2.3182671,1.404483 3.9570312,1.945312 3.2775284,1.08166 7.7370209,1.736328 12.6640629,1.736328 4.927041,0 9.388487,-0.654668 12.666015,-1.736328 1.638764,-0.540829 2.982027,-1.186077 3.955078,-1.945312 0.973052,-0.759235 1.607422,-1.678521 1.607422,-2.716797 z m -1.140625,0 c 0,0.570963 -0.353925,1.183193 -1.167968,1.818359 -0.814044,0.635167 -2.056562,1.246013 -3.613282,1.759766 -3.113439,1.027506 -7.481394,1.677734 -12.30664,1.677734 -4.825247,0 -9.1932017,-0.650228 -12.306641,-1.677734 C 4.3651554,19.204997 3.122637,18.594151 2.3085938,17.958984 1.4945505,17.323818 1.140625,16.711588 1.140625,16.140625 c 0,-0.570963 0.3539255,-1.183193 1.1679688,-1.818359 0.8140432,-0.635167 2.0565616,-1.247966 3.6132812,-1.761719 3.1134393,-1.027506 7.481394,-1.677735 12.306641,-1.677735 4.825246,0 9.193201,0.650229 12.30664,1.677735 1.55672,0.513753 2.799238,1.126552 3.613282,1.761719 0.814043,0.635166 1.167968,1.247396 1.167968,1.818359 z"
     id="path7"
     inkscape:connector-curvature="0" />
  <path
     style="color:#000000;font-style:normal;font-variant:normal;font-weight:normal;font-stretch:normal;font-size:medium;line-height:normal;font-family:sans-serif;font-variant-ligatures:normal;font-variant-position:normal;font-variant-caps:normal;font-variant-numeric:normal;font-variant-alternates:normal;font-feature-settings:normal;text-indent:0;text-align:start;text-decoration:none;text-decoration-line:none;text-decoration-style:solid;text-decoration-color:#000000;letter-spacing:normal;word-spacing:normal;text-transform:none;writing-mode:lr-tb;direction:ltr;text-orientation:mixed;dominant-baseline:auto;baseline-shift:baseline;text-anchor:start;white-space:normal;shape-padding:0;clip-rule:nonzero;display:inline;overflow:visible;visibility:visible;opacity:1;isolation:auto;mix-blend-mode:normal;color-interpolation:sRGB;color-interpolation-filters:linearRGB;solid-color:#000000;solid-opacity:1;vector-effect:none;fill:#00ffff;fill-opacity:1;fill-rule:nonzero;stroke:none;stroke-width:1.1414696;stroke-linecap:butt;stroke-linejoin:miter;stroke-miterlimit:4;stroke-dasharray:none;stroke-dashoffset:0;stroke-opacity:1;color-rendering:auto;image-rendering:auto;shape-rendering:auto;text-rendering:auto;enable-background:accumulate"
     d="m 27.343751,0.35407883 c -0.899174,-0.519138 -2.014175,-0.43037697 -3.158218,0.0326933 -1.144042,0.46306938 -2.374475,1.30374478 -3.662229,2.45254118 -2.575509,2.2975933 -5.3715,5.8349608 -7.835021,10.1019037 -2.463521,4.266943 -4.1279982,8.455335 -4.8300185,11.834588 -0.3510095,1.689626 -0.4648158,3.17724 -0.293825,4.399546 0.1709908,1.222305 0.6516221,2.232305 1.5507955,2.751443 0.899173,0.519138 2.012483,0.4294 3.156526,-0.03367 1.144043,-0.46307 2.375452,-1.305437 3.663205,-2.454233 2.57551,-2.297594 5.372215,-5.832293 7.835736,-10.099236 2.463521,-4.266943 4.127284,-8.458003 4.829304,-11.8372557 C 28.951016,5.8127734 29.063846,4.32685 28.892855,3.1045456 28.721864,1.8822404 28.242924,0.87321683 27.343751,0.35407883 Z M 26.773438,1.3418891 c 0.494468,0.2854815 0.847712,0.898104 0.990761,1.9206694 0.143049,1.0225663 0.0508,2.4040414 -0.282639,4.0090767 -0.666873,3.2100708 -2.287736,7.3179448 -4.70036,11.4967308 -2.412623,4.178786 -5.159715,7.636432 -7.60628,9.818996 -1.223283,1.091283 -2.373551,1.861912 -3.330643,2.24931 -0.957092,0.387399 -1.664261,0.387793 -2.1587295,0.102312 C 9.1910791,30.653502 8.8378353,30.040878 8.6947861,29.018313 8.5517377,27.995748 8.6422972,26.613296 8.975734,25.008261 9.6426072,21.79819 11.26347,17.690316 13.676093,13.51153 16.088717,9.3327436 18.835809,5.8750982 21.282375,3.6925337 22.505658,2.6012514 23.657616,1.8315988 24.614708,1.444199 25.5718,1.0568006 26.27897,1.0564076 26.773438,1.3418891 Z"
     id="ellipse13"
     inkscape:connector-curvature="0" />
  <path
     inkscape:connector-curvature="0"
     style="color:#000000;font-style:normal;font-variant:normal;font-weight:normal;font-stretch:normal;font-size:medium;line-height:normal;font-family:sans-serif;font-variant-ligatures:normal;font-variant-position:normal;font-variant-caps:normal;font-variant-numeric:normal;font-variant-alternates:normal;font-feature-settings:normal;text-indent:0;text-align:start;text-decoration:none;text-decoration-line:none;text-decoration-style:solid;text-decoration-color:#000000;letter-spacing:normal;word-spacing:normal;text-transform:none;writing-mode:lr-tb;direction:ltr;text-orientation:mixed;dominant-baseline:auto;baseline-shift:baseline;text-anchor:start;white-space:normal;shape-padding:0;clip-rule:nonzero;display:inline;overflow:visible;visibility:visible;opacity:1;isolation:auto;mix-blend-mode:normal;color-interpolation:sRGB;color-interpolation-filters:linearRGB;solid-color:#000000;solid-opacity:1;vector-effect:none;fill:#ff0000;fill-opacity:1;fill-rule:nonzero;stroke:none;stroke-width:1.1414696;stroke-linecap:butt;stroke-linejoin:miter;stroke-miterlimit:4;stroke-dasharray:none;stroke-dashoffset:0;stroke-opacity:1;color-rendering:auto;image-rendering:auto;shape-rendering:auto;text-rendering:auto;enable-background:accumulate"
     d="m 18.227754,5.3399951 c -0.25907,0.2899125 -0.511788,0.5315981 -0.771484,0.8417969 -1.631363,1.9486116 -3.258356,4.14376 -4.767578,6.757813 -0.376308,0.651783 -0.600978,1.264575 -0.939454,1.910156 -0.228752,0.436303 -0.423744,0.859547 -0.634765,1.291015 -1.520836,3.109603 -2.733548,6.122509 -3.25586,8.636719 -0.35101,1.689626 -0.465913,3.176133 -0.294921,4.398438 0.170989,1.222305 0.651608,2.232815 1.550781,2.751953 0.899173,0.519138 2.012208,0.429867 3.15625,-0.0332 1.144042,-0.463069 2.376308,-1.306283 3.664062,-2.455079 0.746503,-0.665949 1.524838,-1.638162 2.294922,-2.5 0.769727,0.860927 1.54689,1.832475 2.292969,2.498047 1.287754,1.148797 2.518067,1.992008 3.662109,2.455079 1.144042,0.463067 2.25903,0.552341 3.158203,0.0332 0.899174,-0.519138 1.379791,-1.529649 1.550782,-2.751953 0.17099,-1.222306 0.05609,-2.708812 -0.294922,-4.398438 -0.522465,-2.514945 -1.735064,-5.526324 -3.25586,-8.636719 -0.211033,-0.431614 -0.405955,-0.854557 -0.634765,-1.291015 -0.337866,-0.644485 -0.561824,-1.25556 -0.9375,-1.90625 C 22.261259,10.327089 20.633588,8.1288439 19.001192,6.1798389 18.741456,5.8697287 18.486845,5.6298271 18.227754,5.3399951 Z m 0,1.6835938 c 1.550732,1.868034 3.105638,3.9818361 4.552734,6.4882811 0.518914,0.898785 0.848924,1.74491 1.292969,2.628906 0.217785,0.433563 0.435569,0.862007 0.634766,1.289063 1.282977,2.75056 2.320345,5.397113 2.773437,7.578125 0.333437,1.605036 0.424299,2.987199 0.28125,4.009766 -0.143049,1.022565 -0.495766,1.634439 -0.990234,1.919921 -0.494469,0.285481 -1.201111,0.285837 -2.158203,-0.101562 -0.957093,-0.387398 -2.106795,-1.158717 -3.330078,-2.25 -0.731267,-0.652358 -1.514984,-1.621057 -2.283203,-2.486328 -0.25986,-0.292688 -0.510008,-0.527004 -0.771485,-0.841797 -0.26174,0.315305 -0.513313,0.548662 -0.773437,0.841797 -0.768141,0.86562 -1.549973,1.835914 -2.28125,2.488281 -1.223283,1.091283 -2.372987,1.860649 -3.330078,2.248047 -0.957092,0.387399 -1.663735,0.387044 -2.158204,0.101562 C 9.19227,30.65217 8.837599,30.040293 8.694551,29.01773 c -0.14305,-1.022567 -0.05219,-2.402778 0.28125,-4.007813 0.452976,-2.180452 1.490701,-4.827852 2.773437,-7.578125 0.199403,-0.427532 0.416749,-0.856979 0.634766,-1.291016 0.444241,-0.884412 0.773878,-1.731768 1.292969,-2.630859 1.446978,-2.506242 3.000172,-4.618385 4.550781,-6.4863281 z"
     id="path125" />
  <circle
     style="fill:#ff0000;stroke:none"
     id="path174"
     cx="18.228813"
     cy="16.140518"
     r="3.8305085" />
</svg>
